<svg width="14" height="14" viewBox="0 0 14 14" fill="none" xmlns="http://www.w3.org/2000/svg">
<path d="M2.66875 0.0437503C2.03711 0.158594 1.43555 0.478516 0.957031 0.957031C0.317187 1.59688 0 2.36523 0 3.28125C0 3.83359 0.0957031 4.25742 0.325391 4.7332C0.511328 5.11328 0.680859 5.3293 1.23594 5.89258L1.77461 6.43945L2.3707 5.84609L2.96406 5.25273L2.44453 4.725C2.02344 4.2957 1.91133 4.16445 1.8375 4.01953C1.71719 3.77617 1.66797 3.55742 1.66797 3.28125C1.66797 2.81641 1.80742 2.48281 2.14648 2.14648C2.48281 1.80742 2.81641 1.66797 3.28125 1.66797C3.55742 1.66797 3.77344 1.71719 4.01953 1.8375C4.18086 1.9168 4.41055 2.13555 6.53516 4.25742C7.82305 5.53984 8.88672 6.58984 8.90039 6.58984C8.9168 6.58984 9.19023 6.32734 9.51016 6.00742L10.0898 5.42773L7.71914 3.05977C5.88711 1.23594 5.29922 0.664453 5.14336 0.560547C4.73867 0.295312 4.29844 0.117578 3.87188 0.0410156C3.57109 -0.0109372 2.96406 -0.00820303 2.66875 0.0437503Z" fill="white"/>
<path d="M10.1063 0.0437498C9.69609 0.117579 9.24219 0.306251 8.85664 0.563281C8.73359 0.645312 8.44102 0.907813 8.10742 1.23594L7.56055 1.77461L8.15391 2.3707L8.74727 2.96406L9.275 2.44453C9.7043 2.02344 9.83555 1.91133 9.98047 1.8375C10.2238 1.71719 10.4426 1.66797 10.7188 1.66797C11.1836 1.66797 11.5172 1.80742 11.8535 2.14648C12.1926 2.48281 12.332 2.81641 12.332 3.28125C12.332 3.55742 12.2828 3.77344 12.1625 4.01953C12.0832 4.18086 11.8699 4.40508 9.82461 6.45312C8.58594 7.69453 7.57422 8.72266 7.57422 8.73633C7.57422 8.77188 8.70078 9.89844 8.73633 9.89844C8.75273 9.89844 9.78633 8.87305 11.0359 7.6207C13.4203 5.23086 13.4422 5.20625 13.6746 4.7332C13.9043 4.25742 14 3.83359 14 3.28125C14 2.36523 13.6828 1.59688 13.043 0.957031C12.5563 0.470313 11.9602 0.15586 11.3094 0.0410156C11.0086 -0.0109377 10.4016 -0.00820255 10.1063 0.0437498Z" fill="white"/>
<path d="M2.97773 6.36289C0.579687 8.76914 0.557813 8.79375 0.325391 9.2668C0.0957031 9.74258 0 10.1664 0 10.7188C0 11.6348 0.317187 12.4031 0.957031 13.043C1.59687 13.6828 2.36523 14 3.28125 14C3.83359 14 4.25742 13.9043 4.7332 13.6746C5.11328 13.4887 5.3293 13.3191 5.89258 12.7641L6.43945 12.2254L5.84609 11.6293L5.25273 11.0359L4.725 11.5555C4.2957 11.9766 4.16445 12.0887 4.01953 12.1625C3.77617 12.2828 3.55742 12.332 3.28125 12.332C2.81641 12.332 2.48281 12.1926 2.14648 11.8535C1.80742 11.5172 1.66797 11.1836 1.66797 10.7188C1.66797 10.4426 1.71719 10.2266 1.8375 9.98047C1.9168 9.81914 2.13008 9.59492 4.17539 7.54688C5.41406 6.30547 6.42578 5.27734 6.42578 5.26367C6.42578 5.24727 6.16328 4.97383 5.84336 4.65391L5.26367 4.07422L2.97773 6.36289Z" fill="white"/>
<path d="M4.66758 8.14297C4.35586 8.45469 4.10156 8.72266 4.10156 8.73633C4.10156 8.75273 5.12695 9.78633 6.3793 11.0359C8.76914 13.4203 8.79375 13.4422 9.2668 13.6746C9.74258 13.9043 10.1664 14 10.7188 14C11.6348 14 12.4031 13.6828 13.043 13.043C13.6828 12.4031 14 11.6348 14 10.7188C14 10.1664 13.9043 9.74258 13.6746 9.2668C13.4887 8.88672 13.3191 8.6707 12.7641 8.10742L12.2254 7.56055L11.6293 8.15391L11.0359 8.74727L11.5555 9.275C11.9766 9.7043 12.0887 9.83555 12.1625 9.98047C12.2828 10.2238 12.332 10.4426 12.332 10.7188C12.332 11.1836 12.1926 11.5172 11.8535 11.8535C11.5172 12.1926 11.1836 12.332 10.7188 12.332C10.4426 12.332 10.2266 12.2828 9.98047 12.1625C9.81914 12.0832 9.59492 11.8699 7.54688 9.82461C6.30547 8.58594 5.27734 7.57422 5.26367 7.57422C5.24727 7.57422 4.9793 7.82852 4.66758 8.14297Z" fill="white"/>
</svg>
